{
  "accessors": [
    {
      "bufferView": 2,
      "componentType": 5126,
      "count": 2029,
      "max": [
        0.99776756763458252,
        0.99063104391098022,
        2.0740067958831787
      ],
      "min": [
        -0.99451327323913574,
        -1.0112090110778809,
        -0.14992675185203552
      ],
      "type": "VEC3"
    },
    {
      "bufferView": 2,
      "byteOffset": 24348,
      "componentType": 5126,
      "count": 2029,
      "max": [
        0.99958252906799316,
        0.99966073036193848,
        0.99998641014099121
      ],
      "min": [
        -0.99903005361557007,
        -0.99985218048095703,
        -0.9998551607131958
      ],
      "type": "VEC3"
    },
    {
      "bufferView": 3,
      "componentType": 5126,
      "count": 2029,
      "max": [
        0.99917131662368774,
        0.99931508302688599,
        0.99907493591308594,
        1
      ],
      "min": [
        -0.99486374855041504,
        -0.99997955560684204,
        -0.9505840539932251,
        1
      ],
      "type": "VEC4"
    },
    {
      "bufferView": 1,
      "componentType": 5126,
      "count": 2029,
      "max": [
        0.9631500244140625,
        0.99804002046585083
      ],
      "min": [
        0.0019499999471008778,
        0.0019499999471008778
      ],
      "type": "VEC2"
    },
    {
      "bufferView": 0,
      "componentType": 5125,
      "count": 11622,
      "max": [
        2028
      ],
      "min": [
        0
      ],
      "type": "SCALAR"
    },
    {
      "bufferView": 2,
      "byteOffset": 48696,
      "componentType": 5126,
      "count": 3974,
      "max": [
        0.61158627271652222,
        0.58933085203170776,
        0.033146601170301437
      ],
      "min": [
        -0.61158627271652222,
        -0.53892797231674194,
        -0.60512268543243408
      ],
      "type": "VEC3"
    },
    {
      "bufferView": 2,
      "byteOffset": 96384,
      "componentType": 5126,
      "count": 3974,
      "max": [
        0.99939084053039551,
        0.99985015392303467,
        0.99849951267242432
      ],
      "min": [
        -0.99939084053039551,
        -0.99993085861206055,
        -0.99998581409454346
      ],
      "type": "VEC3"
    },
    {
      "bufferView": 3,
      "byteOffset": 32464,
      "componentType": 5126,
      "count": 3974,
      "max": [
        0.99861156940460205,
        0.99906927347183228,
        0.99996554851531982,
        1
      ],
      "min": [
        -0.99991375207901001,
        -0.99991172552108765,
        -0.99958330392837524,
        1
      ],
      "type": "VEC4"
    },
    {
      "bufferView": 1,
      "byteOffset": 16232,
      "componentType": 5126,
      "count": 3974,
      "max": [
        0.99804002046585083,
        0.92203998565673828
      ],
      "min": [
        0.0019499999471008778,
        0.0019499999471008778
      ],
      "type": "VEC2"
    },
    {
      "bufferView": 0,
      "byteOffset": 46488,
      "componentType": 5125,
      "count": 21312,
      "max": [
        3973
      ],
      "min": [
        0
      ],
      "type": "SCALAR"
    },
    {
      "bufferView": 2,
      "byteOffset": 144072,
      "componentType": 5126,
      "count": 25025,
      "max": [
        1.0824437141418457,
        1.0687196254730225,
        1.0717394351959229
      ],
      "min": [
        -1.0673367977142334,
        -1.0668982267379761,
        -1.0659807920455933
      ],
      "type": "VEC3"
    },
    {
      "bufferView": 2,
      "byteOffset": 444372,
      "componentType": 5126,
      "count": 25025,
      "max": [
        0.99997735023498535,
        0.9999767541885376,
        0.99999511241912842
      ],
      "min": [
        -0.99997937679290771,
        -0.99999582767486572,
        -0.99999094009399414
      ],
      "type": "VEC3"
    },
    {
      "bufferView": 1,
      "byteOffset": 48024,
      "componentType": 5126,
      "count": 25025,
      "max": [
        0.875,
        1
      ],
      "min": [
        0.125,
        0
      ],
      "type": "VEC2"
    },
    {
      "bufferView": 0,
      "byteOffset": 131736,
      "componentType": 5125,
      "count": 147456,
      "max": [
        25024
      ],
      "min": [
        0
      ],
      "type": "SCALAR"
    },
    {
      "bufferView": 2,
      "byteOffset": 744672,
      "componentType": 5126,
      "count": 2434,
      "max": [
        0.17896567285060883,
        0.16147617995738983,
        -0.058994390070438385
      ],
      "min": [
        -0.18766939640045166,
        -0.24654175341129303,
        -0.71520417928695679
      ],
      "type": "VEC3"
    },
    {
      "bufferView": 2,
      "byteOffset": 773880,
      "componentType": 5126,
      "count": 2434,
      "max": [
        0.99997329711914062,
        0.99976158142089844,
        0.99194890260696411
      ],
      "min": [
        -0.99989581108093262,
        -0.9994502067565918,
        -0.99745774269104004
      ],
      "type": "VEC3"
    },
    {
      "bufferView": 3,
      "byteOffset": 96048,
      "componentType": 5126,
      "count": 2434,
      "max": [
        0.99126702547073364,
        0.99803966283798218,
        0.99939298629760742,
        1
      ],
      "min": [
        -0.99985063076019287,
        -0.99800366163253784,
        -0.99969100952148438,
        -1
      ],
      "type": "VEC4"
    },
    {
      "bufferView": 1,
      "byteOffset": 248224,
      "componentType": 5126,
      "count": 2434,
      "max": [
        0.99590998888015747,
        0.99804002046585083
      ],
      "min": [
        0.0019499999471008778,
        0.0019499999471008778
      ],
      "type": "VEC2"
    },
    {
      "bufferView": 0,
      "byteOffset": 721560,
      "componentType": 5125,
      "count": 12570,
      "max": [
        2433
      ],
      "min": [
        0
      ],
      "type": "SCALAR"
    }
  ],
  "asset": {
    "extras": {
      "author": "Lizzy Koopa (https://sketchfab.com/LizzyKoopa)",
      "license": "CC-BY-4.0 (http://creativecommons.org/licenses/by/4.0/)",
      "source": "https://sketchfab.com/3d-models/lily-pad-f60353e176de42b79f8d927067b7ef28",
      "title": "LILY PAD"
    },
    "generator": "Sketchfab-7.97.0",
    "version": "2.0"
  },
  "bufferViews": [
    {
      "buffer": 0,
      "byteLength": 771840,
      "byteOffset": 0,
      "name": "floatBufferViews",
      "target": 34963
    },
    {
      "buffer": 0,
      "byteLength": 267696,
      "byteOffset": 771840,
      "byteStride": 8,
      "name": "floatBufferViews",
      "target": 34962
    },
    {
      "buffer": 0,
      "byteLength": 803088,
      "byteOffset": 1039536,
      "byteStride": 12,
      "name": "floatBufferViews",
      "target": 34962
    },
    {
      "buffer": 0,
      "byteLength": 134992,
      "byteOffset": 1842624,
      "byteStride": 16,
      "name": "floatBufferViews",
      "target": 34962
    }
  ],
  "buffers": [
    {
      "byteLength": 1977616,
      "uri": "scene.bin"
    }
  ],
  "images": [
    {
      "uri": "textures/defaultMat_baseColor.png"
    },
    {
      "uri": "textures/defaultMat_metallicRoughness.png"
    },
    {
      "uri": "textures/defaultMat_normal.png"
    },
    {
      "uri": "textures/defaultMat.001_baseColor.png"
    },
    {
      "uri": "textures/defaultMat.001_metallicRoughness.png"
    },
    {
      "uri": "textures/defaultMat.001_normal.png"
    },
    {
      "uri": "textures/Material.010_baseColor.png"
    },
    {
      "uri": "textures/Material.010_metallicRoughness.png"
    },
    {
      "uri": "textures/Material.010_normal.png"
    }
  ],
  "materials": [
    {
      "doubleSided": true,
      "emissiveFactor": [
        0,
        0,
        0
      ],
      "name": "defaultMat",
      "normalTexture": {
        "index": 2,
        "scale": 1,
        "texCoord": 0
      },
      "occlusionTexture": {
        "index": 1,
        "strength": 1,
        "texCoord": 0
      },
      "pbrMetallicRoughness": {
        "baseColorFactor": [
          1,
          1,
          1,
          1
        ],
        "baseColorTexture": {
          "index": 0,
          "texCoord": 0
        },
        "metallicFactor": 0,
        "metallicRoughnessTexture": {
          "index": 1,
          "texCoord": 0
        },
        "roughnessFactor": 1
      }
    },
    {
      "doubleSided": true,
      "emissiveFactor": [
        0,
        0,
        0
      ],
      "name": "defaultMat.001",
      "normalTexture": {
        "index": 5,
        "scale": 1,
        "texCoord": 0
      },
      "occlusionTexture": {
        "index": 4,
        "strength": 1,
        "texCoord": 0
      },
      "pbrMetallicRoughness": {
        "baseColorFactor": [
          1,
          1,
          1,
          1
        ],
        "baseColorTexture": {
          "index": 3,
          "texCoord": 0
        },
        "metallicFactor": 0,
        "metallicRoughnessTexture": {
          "index": 4,
          "texCoord": 0
        },
        "roughnessFactor": 1
      }
    },
    {
      "alphaMode": "BLEND",
      "doubleSided": false,
      "emissiveFactor": [
        0,
        0,
        0
      ],
      "name": "Material.002",
      "pbrMetallicRoughness": {
        "baseColorFactor": [
          0,
          0.53325100000000003,
          0.99998500000000001,
          0.65015152439926605
        ],
        "metallicFactor": 0,
        "roughnessFactor": 0
      }
    },
    {
      "doubleSided": true,
      "emissiveFactor": [
        0,
        0,
        0
      ],
      "name": "Material.010",
      "normalTexture": {
        "index": 8,
        "scale": 1,
        "texCoord": 0
      },
      "occlusionTexture": {
        "index": 7,
        "strength": 1,
        "texCoord": 0
      },
      "pbrMetallicRoughness": {
        "baseColorFactor": [
          1,
          1,
          1,
          1
        ],
        "baseColorTexture": {
          "index": 6,
          "texCoord": 0
        },
        "metallicFactor": 0,
        "metallicRoughnessTexture": {
          "index": 7,
          "texCoord": 0
        },
        "roughnessFactor": 1
      }
    }
  ],
  "meshes": [
    {
      "primitives": [
        {
          "attributes": {
            "NORMAL": 1,
            "POSITION": 0,
            "TANGENT": 2,
            "TEXCOORD_0": 3
          },
          "indices": 4,
          "material": 0,
          "mode": 4
        }
      ]
    },
    {
      "primitives": [
        {
          "attributes": {
            "NORMAL": 6,
            "POSITION": 5,
            "TANGENT": 7,
            "TEXCOORD_0": 8
          },
          "indices": 9,
          "material": 1,
          "mode": 4
        }
      ]
    },
    {
      "primitives": [
        {
          "attributes": {
            "NORMAL": 11,
            "POSITION": 10,
            "TEXCOORD_0": 12
          },
          "indices": 13,
          "material": 2,
          "mode": 4
        }
      ]
    },
    {
      "primitives": [
        {
          "attributes": {
            "NORMAL": 15,
            "POSITION": 14,
            "TANGENT": 16,
            "TEXCOORD_0": 17
          },
          "indices": 18,
          "material": 3,
          "mode": 4
        }
      ]
    }
  ],
  "nodes": [
    {
      "children": [
        1
      ],
      "name": "RootNode (gltf orientation matrix)",
      "rotation": [
        -0.70710678118654746,
        -0,
        -0,
        0.70710678118654757
      ]
    },
    {
      "children": [
        2
      ],
      "name": "RootNode (model correction matrix)"
    },
    {
      "children": [
        3
      ],
      "name": "root"
    },
    {
      "children": [
        4,
        6,
        8,
        10
      ],
      "matrix": [
        1,
        0,
        0,
        0,
        0,
        2.2204460492503131e-16,
        1,
        0,
        0,
        -1,
        2.2204460492503131e-16,
        0,
        0,
        0,
        0,
        1
      ],
      "name": "GLTF_SceneRootNode"
    },
    {
      "children": [
        5
      ],
      "matrix": [
        1,
        0,
        0,
        0,
        0,
        -1.685873969314855e-07,
        0.99999999999998579,
        0,
        0,
        -0.99999999999998579,
        -1.685873969314855e-07,
        0,
        0,
        0,
        0,
        1
      ],
      "name": "lily pad no flower low_2"
    },
    {
      "mesh": 0,
      "name": ""
    },
    {
      "children": [
        7
      ],
      "matrix": [
        1,
        0,
        0,
        0,
        0,
        -1.685873969314855e-07,
        0.99999999999998579,
        0,
        0,
        -0.99999999999998579,
        -1.685873969314855e-07,
        0,
        0,
        0,
        0,
        1
      ],
      "name": "flower low_3"
    },
    {
      "mesh": 1,
      "name": ""
    },
    {
      "children": [
        9
      ],
      "matrix": [
        2.4580838680267334,
        0,
        0,
        0,
        0,
        1,
        0,
        0,
        0,
        0,
        2.5975589752197266,
        0,
        0,
        -1.161655068397522,
        0,
        1
      ],
      "name": "Cube_4"
    },
    {
      "mesh": 2,
      "name": ""
    },
    {
      "children": [
        11
      ],
      "matrix": [
        1,
        0,
        0,
        0,
        0,
        -1.685873969314855e-07,
        0.99999999999998579,
        0,
        0,
        -0.99999999999998579,
        -1.685873969314855e-07,
        0,
        0,
        0,
        0,
        1
      ],
      "name": "flower mid part low.001_5"
    },
    {
      "mesh": 3,
      "name": ""
    }
  ],
  "samplers": [
    {
      "magFilter": 9729,
      "minFilter": 9987,
      "wrapS": 10497,
      "wrapT": 10497
    }
  ],
  "scene": 0,
  "scenes": [
    {
      "name": "OSG_Scene",
      "nodes": [
        0
      ]
    }
  ],
  "textures": [
    {
      "sampler": 0,
      "source": 0
    },
    {
      "sampler": 0,
      "source": 1
    },
    {
      "sampler": 0,
      "source": 2
    },
    {
      "sampler": 0,
      "source": 3
    },
    {
      "sampler": 0,
      "source": 4
    },
    {
      "sampler": 0,
      "source": 5
    },
    {
      "sampler": 0,
      "source": 6
    },
    {
      "sampler": 0,
      "source": 7
    },
    {
      "sampler": 0,
      "source": 8
    }
  ]
}

